<svg width="30" height="30" viewBox="0 0 30 30" fill="none" xmlns="http://www.w3.org/2000/svg">
<path d="M10.2949 13.29V10.59C10.4299 9.06 11.6719 6 15.5599 6C19.4479 6 20.6315 9.24 20.7665 10.59" stroke="#999999" stroke-width="1.5"/>
<rect x="8.75" y="13.905" width="13.62" height="10.92" rx="1.68" fill="white" stroke="#999999" stroke-width="1.5"/>
<circle cx="15.5605" cy="17.315" r="1" fill="#999999" stroke="#999999"/>
<mask id="path-4-inside-1_99_256" fill="white">
<path d="M15.0605 18.315H16.0605V21.315H15.0605V18.315Z"/>
</mask>
<path d="M15.0605 18.315H16.0605V21.315H15.0605V18.315Z" fill="black"/>
<path d="M15.0605 18.315V17.315H14.0605V18.315H15.0605ZM16.0605 18.315H17.0605V17.315H16.0605V18.315ZM16.0605 21.315V22.315H17.0605V21.315H16.0605ZM15.0605 21.315H14.0605V22.315H15.0605V21.315ZM15.0605 18.315V19.315H16.0605V18.315V17.315H15.0605V18.315ZM16.0605 18.315H15.0605V21.315H16.0605H17.0605V18.315H16.0605ZM16.0605 21.315V20.315H15.0605V21.315V22.315H16.0605V21.315ZM15.0605 21.315H16.0605V18.315H15.0605H14.0605V21.315H15.0605Z" fill="#999999" mask="url(#path-4-inside-1_99_256)"/>
</svg>
